<?xml version="1.0" standalone="no"?>
<!DOCTYPE svg PUBLIC "-//W3C//DTD SVG 20010904//EN"
 "http://www.w3.org/TR/2001/REC-SVG-20010904/DTD/svg10.dtd">
<svg version="1.0" xmlns="http://www.w3.org/2000/svg"
 width="200.000000pt" height="123.000000pt" viewBox="0 0 200.000000 123.000000"
 preserveAspectRatio="xMidYMid meet">

<g transform="translate(0.000000,123.000000) scale(0.100000,-0.100000)"
fill="#000000" stroke="none">
<path d="M1108 512 l-28 -3 0 -170 0 -169 30 0 30 0 0 83 c0 69 3 87 18 100
49 45 82 3 82 -105 l0 -78 28 0 27 0 -5 105 c-4 89 -8 108 -26 125 -21 22 -62
28 -101 16 -21 -7 -22 -3 -25 46 -3 51 -4 53 -30 50z"/>
<path d="M647 494 c-4 -4 -7 -20 -7 -35 0 -18 -6 -28 -20 -32 -12 -3 -20 -14
-20 -27 0 -13 8 -24 20 -27 18 -5 20 -14 20 -78 0 -89 21 -125 75 -125 49 0
65 9 65 37 0 22 -3 24 -26 19 -41 -11 -54 8 -54 80 l0 64 30 0 c27 0 30 3 30
30 0 27 -3 30 -29 30 -26 0 -30 4 -33 33 -2 23 -8 33 -23 35 -12 2 -24 0 -28
-4z"/>
<path d="M1377 493 c-11 -10 -8 -229 3 -257 24 -64 133 -87 189 -40 41 35 53
81 49 199 l-3 100 -30 0 -30 0 -5 -122 c-5 -130 -11 -145 -55 -146 -51 0 -60
22 -63 153 -4 117 -4 120 -26 120 -13 0 -26 -3 -29 -7z"/>
<path d="M170 420 c-19 -5 -47 -22 -62 -39 -23 -26 -28 -40 -28 -86 0 -46 5
-60 28 -86 23 -25 38 -33 79 -36 65 -7 93 8 93 48 0 29 -1 30 -22 15 -31 -22
-74 -20 -98 4 -26 26 -27 90 -2 113 20 19 87 23 97 7 4 -6 11 -8 16 -5 13 9
11 55 -3 59 -35 11 -66 13 -98 6z"/>
<path d="M404 421 c-43 -11 -54 -19 -54 -42 0 -22 2 -22 53 -8 31 8 43 7 63
-6 33 -21 30 -35 -6 -35 -107 0 -170 -104 -89 -146 31 -15 154 -17 175 -2 13
9 8 134 -7 183 -14 48 -71 71 -135 56z m84 -163 c-3 -29 -7 -33 -36 -36 -18
-2 -39 2 -47 8 -28 23 9 58 63 59 20 1 23 -3 20 -31z"/>
<path d="M910 420 c-19 -5 -47 -22 -62 -39 -23 -26 -28 -40 -28 -86 0 -46 5
-60 28 -86 23 -25 38 -33 79 -36 65 -7 93 8 93 48 0 29 -1 30 -22 15 -31 -22
-74 -20 -98 4 -26 26 -27 90 -2 113 20 19 87 23 97 7 4 -6 11 -8 16 -5 13 9
11 55 -3 59 -35 11 -66 13 -98 6z"/>
<path d="M1707 423 c-4 -3 -7 -82 -7 -175 l0 -168 30 0 c29 0 30 2 30 45 l0
45 45 0 c110 0 168 145 89 223 -28 28 -63 37 -106 25 -15 -3 -30 -2 -33 3 -7
10 -39 12 -48 2z m145 -70 c40 -36 11 -133 -41 -133 -44 0 -51 10 -51 74 0 35
3 66 7 69 12 13 67 7 85 -10z"/>
</g>
</svg>
